<?xml version="1.0" encoding="UTF-8" standalone="no"?>
<svg
   xmlns:dc="http://purl.org/dc/elements/1.1/"
   xmlns:cc="http://creativecommons.org/ns#"
   xmlns:rdf="http://www.w3.org/1999/02/22-rdf-syntax-ns#"
   xmlns:svg="http://www.w3.org/2000/svg"
   xmlns="http://www.w3.org/2000/svg"
   xmlns:sodipodi="http://sodipodi.sourceforge.net/DTD/sodipodi-0.dtd"
   xmlns:inkscape="http://www.inkscape.org/namespaces/inkscape"
   version="1.1"
   viewBox="0 0 527.95843 441.71072"
   stroke-miterlimit="10"
   id="svg27"
   sodipodi:docname="GraphicalAbstract.svg"
   width="527.95844"
   height="441.71072"
   style="fill:none;stroke:none;stroke-linecap:square;stroke-miterlimit:10"
   inkscape:version="0.92.4 (5da689c313, 2019-01-14)"
   inkscape:export-filename="/home/alice/Desktop/Git/Article_RelatedParasitesResTol/figures/Final/GraphicalAbstract.jpeg.png"
   inkscape:export-xdpi="72"
   inkscape:export-ydpi="72">
  <metadata
     id="metadata33">
    <rdf:RDF>
      <cc:Work
         rdf:about="">
        <dc:format>image/svg+xml</dc:format>
        <dc:type
           rdf:resource="http://purl.org/dc/dcmitype/StillImage" />
        <dc:title></dc:title>
      </cc:Work>
    </rdf:RDF>
  </metadata>
  <defs
     id="defs31">
    <marker
       inkscape:stockid="Arrow2Mend"
       orient="auto"
       refY="0"
       refX="0"
       id="marker1717"
       style="overflow:visible"
       inkscape:isstock="true">
      <path
         id="path1715"
         style="fill-rule:evenodd;stroke:#000000;stroke-width:0.625;stroke-linejoin:round;stroke-opacity:1"
         d="M 8.7185878,4.0337352 -2.2072895,0.01601326 8.7185884,-4.0017078 c -1.7454984,2.3720609 -1.7354408,5.6174519 -6e-7,8.035443 z"
         transform="scale(-0.6)"
         inkscape:connector-curvature="0" />
    </marker>
    <marker
       inkscape:stockid="Arrow2Send"
       orient="auto"
       refY="0"
       refX="0"
       id="Arrow2Send"
       style="overflow:visible"
       inkscape:isstock="true">
      <path
         id="path910"
         style="fill-rule:evenodd;stroke:#000000;stroke-width:0.625;stroke-linejoin:round;stroke-opacity:1"
         d="M 8.7185878,4.0337352 -2.2072895,0.01601326 8.7185884,-4.0017078 c -1.7454984,2.3720609 -1.7354408,5.6174519 -6e-7,8.035443 z"
         transform="matrix(-0.3,0,0,-0.3,0.69,0)"
         inkscape:connector-curvature="0" />
    </marker>
    <marker
       inkscape:stockid="Arrow1Send"
       orient="auto"
       refY="0"
       refX="0"
       id="Arrow1Send"
       style="overflow:visible"
       inkscape:isstock="true">
      <path
         id="path892"
         d="M 0,0 5,-5 -12.5,0 5,5 Z"
         style="fill-rule:evenodd;stroke:#000000;stroke-width:1.00000003pt;stroke-opacity:1"
         transform="matrix(-0.2,0,0,-0.2,-1.2,0)"
         inkscape:connector-curvature="0" />
    </marker>
    <marker
       inkscape:stockid="Arrow2Mend"
       orient="auto"
       refY="0"
       refX="0"
       id="Arrow2Mend"
       style="overflow:visible"
       inkscape:isstock="true">
      <path
         id="path904"
         style="fill-rule:evenodd;stroke:#000000;stroke-width:0.625;stroke-linejoin:round;stroke-opacity:1"
         d="M 8.7185878,4.0337352 -2.2072895,0.01601326 8.7185884,-4.0017078 c -1.7454984,2.3720609 -1.7354408,5.6174519 -6e-7,8.035443 z"
         transform="scale(-0.6)"
         inkscape:connector-curvature="0" />
    </marker>
    <marker
       inkscape:stockid="Arrow1Mend"
       orient="auto"
       refY="0"
       refX="0"
       id="Arrow1Mend"
       style="overflow:visible"
       inkscape:isstock="true">
      <path
         id="path886"
         d="M 0,0 5,-5 -12.5,0 5,5 Z"
         style="fill-rule:evenodd;stroke:#000000;stroke-width:1.00000003pt;stroke-opacity:1"
         transform="matrix(-0.4,0,0,-0.4,-4,0)"
         inkscape:connector-curvature="0" />
    </marker>
    <marker
       inkscape:stockid="Arrow1Lstart"
       orient="auto"
       refY="0"
       refX="0"
       id="Arrow1Lstart"
       style="overflow:visible"
       inkscape:isstock="true">
      <path
         id="path877"
         d="M 0,0 5,-5 -12.5,0 5,5 Z"
         style="fill-rule:evenodd;stroke:#000000;stroke-width:1.00000003pt;stroke-opacity:1"
         transform="matrix(0.8,0,0,0.8,10,0)"
         inkscape:connector-curvature="0" />
    </marker>
    <marker
       inkscape:stockid="Arrow1Lend"
       orient="auto"
       refY="0"
       refX="0"
       id="Arrow1Lend"
       style="overflow:visible"
       inkscape:isstock="true">
      <path
         id="path880"
         d="M 0,0 5,-5 -12.5,0 5,5 Z"
         style="fill-rule:evenodd;stroke:#000000;stroke-width:1.00000003pt;stroke-opacity:1"
         transform="matrix(-0.8,0,0,-0.8,-10,0)"
         inkscape:connector-curvature="0" />
    </marker>
    <marker
       inkscape:isstock="true"
       style="overflow:visible"
       id="marker1717p"
       refX="0"
       refY="0"
       orient="auto"
       inkscape:stockid="marker1717p">
      <path
         transform="scale(-0.6)"
         d="M 8.7185878,4.0337352 -2.2072895,0.01601326 8.7185884,-4.0017078 c -1.7454984,2.3720609 -1.7354408,5.6174519 -6e-7,8.035443 z"
         style="fill:#000000;fill-opacity:1;fill-rule:evenodd;stroke:#000000;stroke-width:0.625;stroke-linejoin:round;stroke-opacity:1"
         id="path2700"
         inkscape:connector-curvature="0" />
    </marker>
    <marker
       inkscape:isstock="true"
       style="overflow:visible"
       id="marker1717g"
       refX="0"
       refY="0"
       orient="auto"
       inkscape:stockid="marker1717g">
      <path
         transform="scale(-0.6)"
         d="M 8.7185878,4.0337352 -2.2072895,0.01601326 8.7185884,-4.0017078 c -1.7454984,2.3720609 -1.7354408,5.6174519 -6e-7,8.035443 z"
         style="fill:#000000;fill-opacity:1;fill-rule:evenodd;stroke:#000000;stroke-width:0.625;stroke-linejoin:round;stroke-opacity:1"
         id="path2703"
         inkscape:connector-curvature="0" />
    </marker>
    <clipPath
       id="p.1-3">
      <path
         d="m 0,267 v 0 C 0,119.53998 117.52525,0 262.5,0 V 0 C 332.11932,0 398.88724,28.130276 448.11554,78.20249 497.34384,128.2747 525,196.18719 525,267.00001 v 0 c 0,147.46002 -117.52524,267 -262.5,267 v 0 c -144.97475,0 -262.5,-119.53998 -262.5,-267 z"
         id="path9-6"
         inkscape:connector-curvature="0"
         style="clip-rule:evenodd" />
    </clipPath>
    <clipPath
       id="p.1-35">
      <path
         d="m 0,267 v 0 C 0,119.53998 117.52525,0 262.5,0 V 0 C 332.11932,0 398.88724,28.130276 448.11554,78.20249 497.34384,128.2747 525,196.18719 525,267.00001 v 0 c 0,147.46002 -117.52524,267 -262.5,267 v 0 c -144.97475,0 -262.5,-119.53998 -262.5,-267 z"
         id="path9-62"
         inkscape:connector-curvature="0"
         style="clip-rule:evenodd" />
    </clipPath>
    <clipPath
       id="p.1-0">
      <path
         d="m 0,267 v 0 C 0,119.53998 117.52525,0 262.5,0 V 0 C 332.11932,0 398.88724,28.130276 448.11554,78.20249 497.34384,128.2747 525,196.18719 525,267.00001 v 0 c 0,147.46002 -117.52524,267 -262.5,267 v 0 c -144.97475,0 -262.5,-119.53998 -262.5,-267 z"
         id="path9-9"
         inkscape:connector-curvature="0"
         style="clip-rule:evenodd" />
    </clipPath>
    <clipPath
       id="clipPath3905">
      <path
         d="m 0,267 v 0 C 0,119.53998 117.52525,0 262.5,0 V 0 C 332.11932,0 398.88724,28.130276 448.11554,78.20249 497.34384,128.2747 525,196.18719 525,267.00001 v 0 c 0,147.46002 -117.52524,267 -262.5,267 v 0 c -144.97475,0 -262.5,-119.53998 -262.5,-267 z"
         id="path3903"
         inkscape:connector-curvature="0"
         style="clip-rule:evenodd" />
    </clipPath>
    <clipPath
       id="clipPath3905-6">
      <path
         d="m 0,267 v 0 C 0,119.53998 117.52525,0 262.5,0 V 0 C 332.11932,0 398.88724,28.130276 448.11554,78.20249 497.34384,128.2747 525,196.18719 525,267.00001 v 0 c 0,147.46002 -117.52524,267 -262.5,267 v 0 c -144.97475,0 -262.5,-119.53998 -262.5,-267 z"
         id="path3903-0"
         inkscape:connector-curvature="0"
         style="clip-rule:evenodd" />
    </clipPath>
    <clipPath
       id="clipPath3905-1">
      <path
         d="m 0,267 v 0 C 0,119.53998 117.52525,0 262.5,0 V 0 C 332.11932,0 398.88724,28.130276 448.11554,78.20249 497.34384,128.2747 525,196.18719 525,267.00001 v 0 c 0,147.46002 -117.52524,267 -262.5,267 v 0 c -144.97475,0 -262.5,-119.53998 -262.5,-267 z"
         id="path3903-2"
         inkscape:connector-curvature="0"
         style="clip-rule:evenodd" />
    </clipPath>
    <clipPath
       id="p.1">
      <path
         d="m 0,267 v 0 C 0,119.53998 117.52525,0 262.5,0 V 0 C 332.11932,0 398.88724,28.130276 448.11554,78.20249 497.34384,128.2747 525,196.18719 525,267.00001 v 0 c 0,147.46002 -117.52524,267 -262.5,267 v 0 c -144.97475,0 -262.5,-119.53998 -262.5,-267 z"
         id="path9"
         inkscape:connector-curvature="0"
         style="clip-rule:evenodd" />
    </clipPath>
  </defs>
  <sodipodi:namedview
     pagecolor="#ffffff"
     bordercolor="#666666"
     borderopacity="1"
     objecttolerance="10"
     gridtolerance="10"
     guidetolerance="10"
     inkscape:pageopacity="0"
     inkscape:pageshadow="2"
     inkscape:window-width="1680"
     inkscape:window-height="991"
     id="namedview29"
     showgrid="false"
     inkscape:zoom="0.625"
     inkscape:cx="93.022618"
     inkscape:cy="380.42238"
     inkscape:window-x="0"
     inkscape:window-y="0"
     inkscape:window-maximized="1"
     inkscape:current-layer="svg27"
     fit-margin-top="0.5"
     fit-margin-left="-10"
     fit-margin-bottom="0.5"
     fit-margin-right="10" />
  <clipPath
     id="p.0">
    <path
       d="M 0,0 H 960 V 720 H 0 Z"
       id="path2"
       inkscape:connector-curvature="0"
       style="clip-rule:nonzero" />
  </clipPath>
  <path
     style="fill:#000000;fill-opacity:0;fill-rule:evenodd;stroke-width:0.52133769"
     inkscape:connector-curvature="0"
     id="path5"
     d="M -10,64.302557 H 492.10922 V 438.45087 H -10 Z" />
  <path
     style="fill:#000000;fill-opacity:0;fill-rule:evenodd;stroke-width:0.52133769"
     inkscape:connector-curvature="0"
     id="path7"
     d="m 5.30791,216.5615 v 0 c 0,-79.87953 64.07003,-144.634683 143.10443,-144.634683 v 0 c 37.95364,0 74.35281,15.23824 101.1901,42.362513 26.83726,27.12427 41.9143,63.91267 41.9143,102.27217 v 0 c 0,79.87951 -64.07002,144.63466 -143.1044,144.63466 v 0 c -79.0344,0 -143.10443,-64.75514 -143.10443,-144.63466 z" />
  <ellipse
     cx="87.52639"
     cy="356.47238"
     rx="92.267075"
     ry="52.026989"
     transform="matrix(0.97698764,-0.21329591,0.21595064,0.97640428,0,0)"
     id="path3986"
     style="fill:#00ff00;stroke:none;stroke-width:3.2844336;stroke-linecap:butt;stroke-linejoin:round;stroke-miterlimit:30.70000076;stroke-dasharray:none;stroke-dashoffset:0;paint-order:markers stroke fill" />
  <path
     style="fill:none;stroke:#000000;stroke-width:3.08385873;stroke-linecap:butt;stroke-linejoin:miter;stroke-miterlimit:30.70000076;stroke-dasharray:none;stroke-opacity:1;marker-start:url(#marker1717p);marker-end:url(#marker1717g);paint-order:markers stroke fill"
     d="m 390.61582,396.70873 v 0 H 33.78887 V 88.640037"
     id="path875"
     inkscape:connector-curvature="0" />
  <path
     transform="matrix(0.75154661,0.65967999,-0.66450164,0.74728681,0,0)"
     d="M 473.44655,29.893801 A 159.9416,65.389656 0 0 1 313.97397,95.283176 159.9416,65.389656 0 0 1 153.56609,30.277306 159.9416,65.389656 0 0 1 312.09789,-35.493325 159.9416,65.389656 0 0 1 473.43555,29.126804"
     sodipodi:open="true"
     sodipodi:end="6.2714554"
     sodipodi:start="0"
     sodipodi:ry="65.389656"
     sodipodi:rx="159.9416"
     sodipodi:cy="29.893801"
     sodipodi:cx="313.50494"
     sodipodi:type="arc"
     id="path4003"
     style="fill:#ffb380;stroke:none;stroke-width:3.28446174;stroke-linecap:butt;stroke-linejoin:round;stroke-miterlimit:30.70000076;stroke-dasharray:none;stroke-dashoffset:0;paint-order:markers stroke fill" />
  <ellipse
     cx="88.00573"
     cy="355.67386"
     rx="92.267075"
     ry="52.026989"
     transform="matrix(0.97698764,-0.21329591,0.21595064,0.97640428,0,0)"
     id="path3986-7"
     style="fill:none;stroke:#00ff00;stroke-width:3.2844336;stroke-linecap:butt;stroke-linejoin:round;stroke-miterlimit:30.70000076;stroke-dasharray:none;stroke-dashoffset:0;paint-order:markers stroke fill" />
  <path
     transform="matrix(0.75154661,0.65967999,-0.66450164,0.74728681,0,0)"
     d="M 473.44655,29.893801 A 159.9416,65.389656 0 0 1 313.94022,95.283215 159.9416,65.389656 0 0 1 153.56571,30.249712 159.9416,65.389656 0 0 1 312.19913,-35.493676 159.9416,65.389656 0 0 1 473.43707,29.181989"
     sodipodi:open="true"
     sodipodi:end="6.2722994"
     sodipodi:start="0"
     sodipodi:ry="65.389656"
     sodipodi:rx="159.9416"
     sodipodi:cy="29.893801"
     sodipodi:cx="313.50494"
     sodipodi:type="arc"
     id="path4003-9"
     style="fill:none;stroke:#ffb380;stroke-width:3.28446174;stroke-linecap:butt;stroke-linejoin:round;stroke-miterlimit:30.70000076;stroke-dasharray:none;stroke-dashoffset:0;paint-order:markers stroke fill" />
  <text
     id="text4037"
     y="416.28113"
     x="160.49217"
     style="font-style:normal;font-weight:normal;font-size:20.853508px;line-height:1.25;font-family:sans-serif;letter-spacing:0px;word-spacing:0px;fill:#000000;fill-opacity:1;stroke:none;stroke-width:0.52133769"
     xml:space="preserve"
     transform="scale(1.0032469,0.99676361)"><tspan
       y="416.28113"
       x="160.49217"
       id="tspan4035"
       sodipodi:role="line"
       style="stroke-width:0.52133769">Infection intensity = </tspan><tspan
       id="tspan4039"
       y="442.34802"
       x="160.49217"
       sodipodi:role="line"
       style="stroke-width:0.52133769">- resistance</tspan></text>
  <text
     transform="matrix(0,-0.99676361,1.0032469,0,0,0)"
     id="text4037-2"
     y="19.537397"
     x="-339.21857"
     style="font-style:normal;font-weight:normal;font-size:20.853508px;line-height:1.25;font-family:sans-serif;letter-spacing:0px;word-spacing:0px;fill:#000000;fill-opacity:1;stroke:none;stroke-width:0.52133769"
     xml:space="preserve"><tspan
       id="tspan4039-2"
       y="19.537397"
       x="-339.21857"
       sodipodi:role="line"
       style="stroke-width:0.52133769">Impact on host health </tspan></text>
  <text
     id="text4066"
     y="67.377365"
     x="61.991161"
     style="font-style:normal;font-weight:normal;font-size:20.853508px;line-height:1.25;font-family:sans-serif;letter-spacing:0px;word-spacing:0px;fill:#000000;fill-opacity:1;stroke:none;stroke-width:0.52133769"
     xml:space="preserve"
     transform="scale(1.0032469,0.99676361)"><tspan
       y="67.377365"
       x="61.991161"
       id="tspan4064"
       sodipodi:role="line"
       style="stroke-width:0.52133769">low tolerance / </tspan><tspan
       id="tspan4106"
       y="93.44426"
       x="61.991161"
       sodipodi:role="line"
       style="stroke-width:0.52133769">high resistance</tspan></text>
  <text
     id="text4066-5"
     y="303.34787"
     x="350.24918"
     style="font-style:normal;font-weight:normal;font-size:20.853508px;line-height:1.25;font-family:sans-serif;letter-spacing:0px;word-spacing:0px;fill:#000000;fill-opacity:1;stroke:none;stroke-width:0.52133769"
     xml:space="preserve"
     transform="scale(1.0032469,0.99676361)"><tspan
       y="303.34787"
       x="350.24918"
       id="tspan4064-9"
       sodipodi:role="line"
       style="stroke-width:0.52133769">high tolerance / </tspan><tspan
       id="tspan4104"
       y="329.41479"
       x="350.24918"
       sodipodi:role="line"
       style="stroke-width:0.52133769">low resistance</tspan></text>
  <text
     xml:space="preserve"
     style="font-style:normal;font-weight:normal;font-size:23.2676487px;line-height:1.25;font-family:sans-serif;letter-spacing:0px;word-spacing:0px;fill:#000000;fill-opacity:1;stroke:none;stroke-width:0.58169127"
     x="132.59795"
     y="219.79379"
     id="text4151"
     transform="scale(1.0040617,0.99595472)"><tspan
       sodipodi:role="line"
       id="tspan4149"
       x="132.59795"
       y="219.79379"
       style="font-style:italic;font-variant:normal;font-weight:normal;font-stretch:normal;font-family:sans-serif;-inkscape-font-specification:'sans-serif Italic';stroke-width:0.58169127">E. falciformis</tspan></text>
  <text
     xml:space="preserve"
     style="font-style:normal;font-weight:normal;font-size:23.2676487px;line-height:1.25;font-family:sans-serif;letter-spacing:0px;word-spacing:0px;fill:#000000;fill-opacity:1;stroke:none;stroke-width:0.58169121"
     x="74.820869"
     y="297.56949"
     id="text4151-2"
     transform="scale(1.0040617,0.99595472)"><tspan
       sodipodi:role="line"
       id="tspan4149-2"
       x="74.820869"
       y="297.56949"
       style="font-style:italic;font-variant:normal;font-weight:normal;font-stretch:normal;font-family:sans-serif;-inkscape-font-specification:'sans-serif Italic';stroke-width:0.58169121">E. ferrisi</tspan></text>
  <path
     d="m 235.76695,320.65945 0.45323,0.89913 c 16.32937,-7.5283 12.78844,-24.41639 24.75843,-34.35552 l -5.5672,7.99642 c -5.78525,13.54801 -6.58268,23.47168 -19.0791,28.61312 l -3.74729,5.1816 -7.15504,6.64694 -1.47493,0.112 0.22817,-1.46379 -0.90957,0.22633 -1.25065,1.23746 -0.45323,-0.67666 0.45323,-1.3518 1.25065,-0.33755 2.15633,0.56388 2.95375,-3.82903 -23.16747,2.47725 -5.223,-1.12546 -2.3845,2.36601 -1.4905,2.08794 -2.48574,0.051 c 0,0 -2.43978,-0.24409 -3.35168,-0.60947 l -2.87199,0.86901 c -3.40698,0.11201 -0.86674,-2.57689 -0.86674,-2.57689 l 5.56954,0.0726 2.19059,-2.05471 c -2.74427,-2.21153 -7.38634,-4.3574 -11.05186,-3.42505 l -4.20363,0.89991 -1.24754,0.67589 0.79432,-2.13969 -2.61345,2.02768 c -4.94265,-3.06585 -4.65997,-4.43541 -1.92816,-8.5603 2.14776,-4.90892 4.13355,-7.20851 8.40493,-9.91208 -0.35277,-2.49811 0.17599,-3.85917 1.39628,-5.90848 1.54813,-1.8253 8.24061,-2.75765 8.8122,-0.45806 -0.40183,1.65922 -2.51532,0.1962 -4.59922,1.51477 l -3.79324,5.00857 c 2.7069,-3.8862 1.88922,-7.21778 6.88405,-6.91266 2.86809,0.21706 5.63962,3.22266 4.29785,5.91079 -0.74213,1.35488 -3.42489,3.40651 -3.81737,3.70545 -3.28239,2.49579 0.3037,-0.50055 5.03766,-2.15436 16.51704,-3.86226 28.15918,-5.74781 39.09189,8.70783 z"
     style="fill:#ff0000;fill-opacity:1;fill-rule:nonzero;stroke:none;stroke-width:0.77558827"
     id="path752"
     inkscape:connector-curvature="0" />
  <path
     d="m 153.83004,148.27709 0.45323,0.89913 c 16.32937,-7.5283 12.78844,-24.4164 24.75843,-34.35552 l -5.5672,7.99641 c -5.78525,13.54801 -6.58268,23.47169 -19.0791,28.61312 l -3.74729,5.1816 -7.15505,6.64694 -1.47493,0.11201 0.22818,-1.4638 -0.90957,0.22633 -1.25066,1.23747 -0.45322,-0.67667 0.45322,-1.35179 1.25066,-0.33756 2.15632,0.56389 2.95376,-3.82904 -23.16747,2.47725 -5.223,-1.12546 -2.3845,2.36602 -1.4905,2.08793 -2.48574,0.051 c 0,0 -2.43979,-0.24409 -3.35169,-0.60946 l -2.87198,0.86901 c -3.40698,0.112 -0.86674,-2.5769 -0.86674,-2.5769 l 5.56954,0.0726 2.19059,-2.05472 c -2.74428,-2.21153 -7.38634,-4.3574 -11.05186,-3.42504 l -4.20363,0.8999 -1.24754,0.6759 0.79432,-2.1397 -2.61345,2.02769 c -4.94266,-3.06586 -4.65997,-4.43542 -1.92816,-8.5603 2.14776,-4.90893 4.13355,-7.20851 8.40493,-9.91209 -0.35277,-2.49811 0.17599,-3.85916 1.39628,-5.90848 1.54813,-1.8253 8.2406,-2.75765 8.8122,-0.45806 -0.40183,1.65923 -2.51533,0.1962 -4.59923,1.51477 l -3.79323,5.00858 c 2.70689,-3.8862 1.88921,-7.21778 6.88404,-6.91266 2.8681,0.21705 5.63963,3.22266 4.29786,5.91079 -0.74214,1.35488 -3.42489,3.4065 -3.81737,3.70544 -3.28239,2.49579 0.3037,-0.50055 5.03765,-2.15436 16.51705,-3.86225 28.15919,-5.74781 39.0919,8.70784 z"
     style="fill:#ff0000;fill-opacity:1;fill-rule:nonzero;stroke:none;stroke-width:0.77558827"
     id="path752-3"
     inkscape:connector-curvature="0" />
  <path
     d="m 87.62648,344.25552 -0.45322,0.89914 C 70.84389,337.62635 74.38481,320.73825 62.41482,310.79913 l 5.5672,7.99641 c 5.78525,13.54801 6.58268,23.47169 19.0791,28.61312 l 3.74729,5.1816 7.15505,6.64694 1.47493,0.11201 -0.22817,-1.4638 0.90956,0.22633 1.25066,1.23747 0.45323,-0.67667 -0.45323,-1.35179 -1.25066,-0.33756 -2.15632,0.56389 -2.95376,-3.82904 23.16747,2.47725 5.223,-1.12546 2.3845,2.36602 1.49051,2.08793 2.48573,0.051 c 0,0 2.43979,-0.24409 3.35169,-0.60946 l 2.87199,0.86901 c 3.40698,0.112 0.86673,-2.5769 0.86673,-2.5769 l -5.56953,0.0726 -2.1906,-2.05472 c 2.74428,-2.21152 7.38634,-4.35739 11.05186,-3.42504 l 4.20363,0.8999 1.24754,0.6759 -0.79431,-2.13969 2.61344,2.02768 c 4.94265,-3.06585 4.65997,-4.43541 1.92816,-8.5603 -2.14776,-4.90893 -4.13043,-7.20851 -8.40181,-9.91209 0.35277,-2.49811 -0.176,-3.85916 -1.39628,-5.90847 -1.55125,-1.82531 -8.24373,-2.75765 -8.81532,-0.45807 0.40105,1.65923 2.51844,0.19621 4.59923,1.51478 l 3.79324,5.00857 c -2.7069,-3.8862 -1.88923,-7.21778 -6.88094,-6.91266 -2.8712,0.21706 -5.64274,3.22266 -4.30097,5.91079 0.74525,1.35488 3.42489,3.40651 3.81738,3.70545 3.28549,2.49579 -0.30371,-0.50055 -5.03767,-2.15437 -16.51703,-3.86225 -28.15918,-5.7478 -39.09189,8.70784 z"
     style="fill:#000080;fill-opacity:1;fill-rule:nonzero;stroke:none;stroke-width:0.77558827"
     id="path704"
     inkscape:connector-curvature="0" />
  <path
     d="m 273.96688,306.89508 -0.45322,0.89913 c -16.32937,-7.52831 -12.78845,-24.4164 -24.75844,-34.35552 l 5.5672,7.99641 c 5.78526,13.54802 6.58268,23.47169 19.0791,28.61312 l 3.74729,5.18161 7.15505,6.64693 1.47493,0.11201 -0.22817,-1.46379 0.90956,0.22632 1.25066,1.23747 0.45323,-0.67667 -0.45323,-1.35179 -1.25066,-0.33756 -2.15632,0.56389 -2.95376,-3.82904 23.16748,2.47725 5.22299,-1.12546 2.3845,2.36602 1.49051,2.08793 2.48573,0.051 c 0,0 2.43979,-0.2441 3.35169,-0.60947 l 2.87199,0.86901 c 3.40698,0.112 0.86674,-2.5769 0.86674,-2.5769 l -5.56954,0.0726 -2.1906,-2.05472 c 2.74428,-2.21152 7.38634,-4.35739 11.05186,-3.42505 l 4.20363,0.89991 1.24754,0.67589 -0.79431,-2.13968 2.61345,2.02768 c 4.94265,-3.06586 4.65996,-4.43541 1.92815,-8.5603 -2.14776,-4.90892 -4.13043,-7.20851 -8.40181,-9.91209 0.35277,-2.4981 -0.176,-3.85917 -1.39628,-5.90848 -1.55124,-1.8253 -8.24373,-2.75765 -8.81532,-0.45806 0.40105,1.65922 2.51844,0.1962 4.59923,1.51478 l 3.79324,5.00857 c -2.7069,-3.8862 -1.88922,-7.21778 -6.88093,-6.91267 -2.87121,0.21706 -5.64275,3.22267 -4.30098,5.9108 0.74526,1.35488 3.42489,3.40651 3.81738,3.70545 3.28549,2.49578 -0.30371,-0.50055 -5.03766,-2.15437 -16.51704,-3.86225 -28.15919,-5.74781 -39.0919,8.70784 z"
     style="fill:#000080;fill-opacity:1;fill-rule:nonzero;stroke:none;stroke-width:0.77558827"
     id="path704-6"
     inkscape:connector-curvature="0" />
  <path
     d="m 323.34982,23.268617 -0.32925,0.56748 C 311.15825,19.084717 313.73052,8.4260569 305.03503,2.1531169 l 4.04425,5.04682 c 4.20264,8.5506201 4.78192,14.8138101 13.85984,18.0587401 l 2.72218,3.27029 5.19772,4.19512 1.07145,0.0707 -0.16575,-0.92385 0.66075,0.14284 0.90852,0.78101 0.32924,-0.42707 -0.32924,-0.85316 -0.90852,-0.21305 -1.56645,0.35589 -2.14573,-2.41664 16.8298,1.56348 3.79421,-0.71031 1.73219,1.49327 1.08276,1.31777 1.80575,0.0322 c 0,0 1.77236,-0.15407 2.4348,-0.38466 l 2.08633,0.54846 c 2.47497,0.0707 0.62963,-1.62637 0.62963,-1.62637 l -4.04594,0.0458 -1.59133,-1.29681 c 1.99355,-1.39577 5.36573,-2.7501 8.02852,-2.16167 l 3.05369,0.56796 0.90626,0.42658 -0.57702,-1.35043 1.89852,1.27975 c 3.59054,-1.93497 3.38519,-2.79935 1.40068,-5.40271 -1.56021,-3.09819 -3.00051,-4.54954 -6.10341,-6.25586 0.25626,-1.57665 -0.12786,-2.43566 -1.01432,-3.72905 -1.12689,-1.15202 -5.98858,-1.74045 -6.40381,-0.2891 0.29134,1.04719 1.8295,0.12383 3.34107,0.95603 l 2.75557,3.16108 c -1.96641,-2.45272 -1.37241,-4.55539 -4.9986,-4.36282 -2.08576,0.13699 -4.09912,2.03393 -3.1244,3.73051 0.54138,0.85511 2.48798,2.14996 2.7731,2.33863 2.38672,1.57518 -0.22063,-0.31591 -3.65957,-1.35969 -11.99865,-2.43761 -20.45598,-3.62764 -28.39795,5.49582 z"
     style="fill:#000080;fill-opacity:1;fill-rule:nonzero;stroke:none;stroke-width:0.52516115;stroke-linecap:square;stroke-miterlimit:10"
     id="path704-6-7"
     inkscape:connector-curvature="0" />
  <path
     d="m 365.68257,55.121607 0.32924,0.56748 c 11.86232,-4.75138 9.29005,-15.41005 17.98555,-21.68298 l -4.04425,5.04682 c -4.20264,8.55062 -4.78192,14.8138 -13.85984,18.05874 l -2.72218,3.27029 -5.19772,4.19512 -1.07145,0.0707 0.16575,-0.92386 -0.66075,0.14285 -0.90852,0.78101 -0.32925,-0.42707 0.32925,-0.85317 0.90852,-0.21304 1.56645,0.35589 2.14573,-2.41664 -16.82981,1.56348 -3.7942,-0.71032 -1.73219,1.49328 -1.08277,1.31777 -1.80574,0.0322 c 0,0 -1.77236,-0.15405 -2.4348,-0.38465 l -2.08633,0.54846 c -2.47497,0.0707 -0.62964,-1.62637 -0.62964,-1.62637 l 4.04594,0.0458 1.59134,-1.2968 c -1.99355,-1.39578 -5.36574,-2.75011 -8.02852,-2.16167 l -3.05369,0.56796 -0.90627,0.42659 0.57702,-1.35044 -1.89851,1.27974 c -3.59055,-1.93497 -3.38519,-2.79934 -1.40069,-5.4027 1.56022,-3.09819 3.00277,-4.54955 6.10568,-6.25587 -0.25627,-1.57664 0.12785,-2.43565 1.01432,-3.72905 1.12462,-1.15201 5.98631,-1.74045 6.40154,-0.28909 -0.2919,1.04719 -1.82723,0.12382 -3.34107,0.95602 l -2.75556,3.16109 c 1.9664,-2.45272 1.37241,-4.5554 5.00086,-4.36282 2.0835,0.13699 4.09685,2.03393 3.12214,3.73051 -0.53913,0.8551 -2.48798,2.14996 -2.7731,2.33863 -2.38446,1.57518 0.22062,-0.31592 3.65956,-1.35969 11.99866,-2.43761 20.45599,-3.62765 28.39796,5.49582 z"
     style="fill:#ff0000;fill-opacity:1;fill-rule:nonzero;stroke:none;stroke-width:0.52516115;stroke-linecap:square;stroke-miterlimit:10"
     id="path752-3-5"
     inkscape:connector-curvature="0" />
  <text
     xml:space="preserve"
     style="font-style:normal;font-weight:normal;font-size:23.2676487px;line-height:1.25;font-family:sans-serif;letter-spacing:0px;word-spacing:0px;fill:#000000;fill-opacity:1;stroke:none;stroke-width:0.58169127"
     x="374.38266"
     y="30.729406"
     id="text1048"
     transform="scale(1.0040617,0.99595472)"><tspan
       sodipodi:role="line"
       x="374.38266"
       y="30.729406"
       id="tspan1050"
       style="font-style:italic;font-variant:normal;font-weight:normal;font-stretch:normal;font-size:15.51176548px;font-family:sans-serif;-inkscape-font-specification:'sans-serif Italic';stroke-width:0.58169127">M. m. domesticus</tspan><tspan
       sodipodi:role="line"
       x="374.38266"
       y="59.813969"
       id="tspan1054"
       style="font-style:italic;font-variant:normal;font-weight:normal;font-stretch:normal;font-size:15.51176548px;font-family:sans-serif;-inkscape-font-specification:'sans-serif Italic';stroke-width:0.58169127">M. m. musculus</tspan></text>
  <text
     xml:space="preserve"
     style="font-style:normal;font-weight:normal;font-size:23.2676487px;line-height:1.25;font-family:sans-serif;letter-spacing:0px;word-spacing:0px;fill:#000000;fill-opacity:1;stroke:none;stroke-width:0.58169127"
     x="457.96243"
     y="61.660496"
     id="text1058"
     transform="scale(1.0040617,0.99595472)"><tspan
       sodipodi:role="line"
       id="tspan1056"
       x="457.96243"
       y="61.660496"
       style="stroke-width:0.58169127"> </tspan></text>
  <rect
     style="fill:none;stroke:#000000;stroke-width:0.98887515;stroke-linecap:butt;stroke-linejoin:round;stroke-miterlimit:30.70000076;stroke-dasharray:none;stroke-dashoffset:0;paint-order:markers stroke fill"
     id="rect1060"
     width="213.59711"
     height="73.677757"
     x="303.86691"
     y="0.99443758" />
</svg>
