<?xml version="1.0" encoding="UTF-8" standalone="no"?>
<!-- Created with Inkscape (http://www.inkscape.org/) -->

<svg
   xmlns:dc="http://purl.org/dc/elements/1.1/"
   xmlns:cc="http://creativecommons.org/ns#"
   xmlns:rdf="http://www.w3.org/1999/02/22-rdf-syntax-ns#"
   xmlns:svg="http://www.w3.org/2000/svg"
   xmlns="http://www.w3.org/2000/svg"
   xmlns:xlink="http://www.w3.org/1999/xlink"
   xmlns:sodipodi="http://sodipodi.sourceforge.net/DTD/sodipodi-0.dtd"
   xmlns:inkscape="http://www.inkscape.org/namespaces/inkscape"
   width="137.32866mm"
   height="79.253609mm"
   viewBox="0 0 137.32866 79.253609"
   version="1.1"
   id="svg8"
   inkscape:version="0.92.1 r15371"
   sodipodi:docname="miceSquare.svg">
  <defs
     id="defs2">
    <linearGradient
       inkscape:collect="always"
       id="linearGradient4738">
      <stop
         style="stop-color:#0000ff;stop-opacity:1;"
         offset="0"
         id="stop4734" />
      <stop
         style="stop-color:#ff0000;stop-opacity:1"
         offset="1"
         id="stop4736" />
    </linearGradient>
    <clipPath
       id="clipPath4520"
       clipPathUnits="userSpaceOnUse">
      <path
         inkscape:connector-curvature="0"
         id="path4518"
         d="M 0,197.5 H 422.5 V 0 H 0 Z" />
    </clipPath>
    <clipPath
       id="clipPath4528"
       clipPathUnits="userSpaceOnUse">
      <path
         inkscape:connector-curvature="0"
         id="path4526"
         d="M 4.08257,189.16 H 420.39 V 4.99287 H 4.08257 Z" />
    </clipPath>
    <clipPath
       id="clipPath4520-3"
       clipPathUnits="userSpaceOnUse">
      <path
         inkscape:connector-curvature="0"
         id="path4518-6"
         d="M 0,197.5 H 422.5 V 0 H 0 Z" />
    </clipPath>
    <clipPath
       id="clipPath4528-7"
       clipPathUnits="userSpaceOnUse">
      <path
         inkscape:connector-curvature="0"
         id="path4526-5"
         d="M 4.08257,189.16 H 420.39 V 4.99287 H 4.08257 Z" />
    </clipPath>
    <clipPath
       id="clipPath4520-3-9"
       clipPathUnits="userSpaceOnUse">
      <path
         inkscape:connector-curvature="0"
         id="path4518-6-3"
         d="M 0,197.5 H 422.5 V 0 H 0 Z" />
    </clipPath>
    <clipPath
       id="clipPath4528-7-6"
       clipPathUnits="userSpaceOnUse">
      <path
         inkscape:connector-curvature="0"
         id="path4526-5-0"
         d="M 4.08257,189.16 H 420.39 V 4.99287 H 4.08257 Z" />
    </clipPath>
    <clipPath
       id="clipPath4520-6"
       clipPathUnits="userSpaceOnUse">
      <path
         inkscape:connector-curvature="0"
         id="path4518-2"
         d="M 0,197.5 H 422.5 V 0 H 0 Z" />
    </clipPath>
    <clipPath
       id="clipPath4528-6"
       clipPathUnits="userSpaceOnUse">
      <path
         inkscape:connector-curvature="0"
         id="path4526-1"
         d="M 4.08257,189.16 H 420.39 V 4.99287 H 4.08257 Z" />
    </clipPath>
    <linearGradient
       inkscape:collect="always"
       xlink:href="#linearGradient4738"
       id="linearGradient4740"
       x1="55.324791"
       y1="145.99271"
       x2="140.3165"
       y2="145.99271"
       gradientUnits="userSpaceOnUse"
       gradientTransform="matrix(1.1639254,0,0,1.4537848,-2.0137601,-72.934387)" />
    <linearGradient
       inkscape:collect="always"
       xlink:href="#linearGradient4738"
       id="linearGradient4740-9"
       x1="55.324791"
       y1="145.99271"
       x2="140.3165"
       y2="145.99271"
       gradientUnits="userSpaceOnUse"
       gradientTransform="matrix(1.1639254,0,0,1.4537848,-2.01376,-134.11032)" />
    <clipPath
       id="clipPath4520-3-0"
       clipPathUnits="userSpaceOnUse">
      <path
         inkscape:connector-curvature="0"
         id="path4518-6-36"
         d="M 0,197.5 H 422.5 V 0 H 0 Z" />
    </clipPath>
    <clipPath
       id="clipPath4528-7-1"
       clipPathUnits="userSpaceOnUse">
      <path
         inkscape:connector-curvature="0"
         id="path4526-5-06"
         d="M 4.08257,189.16 H 420.39 V 4.99287 H 4.08257 Z" />
    </clipPath>
    <clipPath
       id="clipPath4895"
       clipPathUnits="userSpaceOnUse">
      <path
         inkscape:connector-curvature="0"
         id="path4893"
         d="M 0,980 H 1400 V 0 H 0 Z" />
    </clipPath>
  </defs>
  <sodipodi:namedview
     id="base"
     pagecolor="#ffffff"
     bordercolor="#666666"
     borderopacity="1.0"
     inkscape:pageopacity="0.0"
     inkscape:pageshadow="2"
     inkscape:zoom="1.979899"
     inkscape:cx="321.08617"
     inkscape:cy="127.41905"
     inkscape:document-units="mm"
     inkscape:current-layer="g4891"
     showgrid="false"
     inkscape:window-width="1920"
     inkscape:window-height="1171"
     inkscape:window-x="0"
     inkscape:window-y="0"
     inkscape:window-maximized="1"
     fit-margin-top="0"
     fit-margin-left="0"
     fit-margin-right="0"
     fit-margin-bottom="0" />
  <metadata
     id="metadata5">
    <rdf:RDF>
      <cc:Work
         rdf:about="">
        <dc:format>image/svg+xml</dc:format>
        <dc:type
           rdf:resource="http://purl.org/dc/dcmitype/StillImage" />
        <dc:title></dc:title>
      </cc:Work>
    </rdf:RDF>
  </metadata>
  <g
     inkscape:label="Layer 1"
     inkscape:groupmode="layer"
     id="layer1"
     transform="translate(-43.952639,-64.288306)">
    <g
       id="g4768"
       transform="translate(-4.2763124,-2.9399648)"
       style="stroke:none">
      <rect
         ry="0.0012223974"
         y="134.25633"
         x="62.380177"
         height="5.0511808"
         width="98.924011"
         id="rect4732"
         style="color:#000000;display:inline;overflow:visible;visibility:visible;opacity:1;fill:url(#linearGradient4740);fill-opacity:1;fill-rule:nonzero;stroke:none;stroke-width:0.17208584;stroke-linecap:butt;stroke-linejoin:miter;stroke-miterlimit:10;stroke-dasharray:none;stroke-dashoffset:0;stroke-opacity:0.99065396;marker:none;enable-background:accumulate" />
      <rect
         ry="0.0012223974"
         y="73.080467"
         x="62.380177"
         height="5.0511808"
         width="98.924011"
         id="rect4732-9"
         style="color:#000000;display:inline;overflow:visible;visibility:visible;opacity:1;fill:url(#linearGradient4740-9);fill-opacity:1;fill-rule:nonzero;stroke:none;stroke-width:0.17208584;stroke-linecap:butt;stroke-linejoin:miter;stroke-miterlimit:10;stroke-dasharray:none;stroke-dashoffset:0;stroke-opacity:0.99065396;marker:none;enable-background:accumulate" />
      <rect
         ry="0.0012223974"
         y="-67.431351"
         x="72.88945"
         height="5.0511808"
         width="66.41806"
         id="rect4732-9-4"
         style="color:#000000;display:inline;overflow:visible;visibility:visible;opacity:1;fill:#0000ff;fill-opacity:1;fill-rule:nonzero;stroke:none;stroke-width:0.14100592;stroke-linecap:butt;stroke-linejoin:miter;stroke-miterlimit:10;stroke-dasharray:none;stroke-dashoffset:0;stroke-opacity:0.99065396;marker:none;enable-background:accumulate"
         transform="rotate(90)" />
      <rect
         ry="0.0012223974"
         y="-161.35635"
         x="72.88945"
         height="5.0511808"
         width="66.41806"
         id="rect4732-9-4-5"
         style="color:#000000;display:inline;overflow:visible;visibility:visible;opacity:1;fill:#ff0000;fill-opacity:1;fill-rule:nonzero;stroke:none;stroke-width:0.14100592;stroke-linecap:butt;stroke-linejoin:miter;stroke-miterlimit:10;stroke-dasharray:none;stroke-dashoffset:0;stroke-opacity:0.99065396;marker:none;enable-background:accumulate"
         transform="rotate(90)" />
    </g>
    <g
       id="g4730"
       transform="matrix(0.81148272,0,0,0.80237639,-13.126572,-44.408509)"
       style="fill:#0000ff;stroke:#000000">
      <g
         transform="matrix(0.43451817,0,0,-0.49052814,-499.81458,252.11203)"
         inkscape:label="Mice Silhouette"
         id="g4887">
        <g
           transform="translate(636.0355,-212.52456)"
           id="g4891"
           clip-path="url(#clipPath4895)">
          <g
             id="g4897"
             transform="matrix(0.20092111,0,0,0.16910055,742.43732,266.98175)"
             style="fill:#0000ff;stroke:#ffffff;stroke-width:9.74262905;stroke-miterlimit:4;stroke-dasharray:none">
            <path
               d="m 0,0 c 2.827,0.107 5.653,0.244 8.48,0.318 4.895,0.128 9.651,-0.889 14.41,-1.848 0.589,-0.119 1.159,-0.356 1.719,-0.582 2.766,-1.129 3.725,-4.849 1.719,-7.109 -2.248,-2.531 -5.018,-4.046 -8.559,-3.636 -0.201,0.023 -0.404,0.044 -0.599,0.088 -4.375,1.047 -8.827,0.927 -13.279,0.966 -5.659,0.049 -11.317,0.205 -16.973,0.388 -3.84,0.123 -7.675,0.363 -11.512,0.565 -1.008,0.054 -2.025,0.095 -3.019,0.258 -1.885,0.311 -3.422,1.261 -4.427,2.9 -0.737,1.203 -1.324,2.495 -1.995,3.738 -0.48,0.886 -0.918,1.806 -1.497,2.625 -1.808,2.557 -6.195,2.299 -7.735,-0.465 -0.483,-0.871 -0.874,-1.832 -1.106,-2.799 -0.281,-1.172 -0.51,-2.398 -0.482,-3.596 0.099,-4.188 -1.967,-7.352 -4.713,-10.165 -1.834,-1.879 -3.826,-3.606 -5.772,-5.372 -1.511,-1.373 -2.832,-2.873 -3.721,-4.736 -0.818,-1.712 -0.439,-3.615 0.969,-4.982 1.504,-1.459 3.305,-2.385 5.317,-2.745 2.779,-0.498 5.605,-1.143 8.396,-1.084 5.159,0.11 9.375,-2.194 13.598,-4.576 2.273,-1.282 2.373,-4.616 0.312,-6.194 -0.479,-0.367 -0.969,-0.746 -1.51,-1.003 -2.192,-1.039 -4.408,-2.027 -6.611,-3.044 -2.217,-1.02 -4.31,-0.813 -6.311,0.575 -0.831,0.575 -1.662,1.162 -2.546,1.646 -3.386,1.848 -6.873,3.436 -10.742,4.006 -3.866,0.567 -7.432,1.909 -10.623,4.193 -3.119,2.235 -6.439,4.238 -9.305,6.761 -2.594,2.282 -5.468,3.339 -8.756,3.667 -0.803,0.079 -1.619,0.126 -2.424,0.09 -3.476,-0.16 -6.844,0.3 -10.139,1.464 -1.517,0.535 -3.127,0.834 -4.708,1.164 -2.585,0.539 -5.108,1.243 -7.458,2.482 -0.178,0.095 -0.357,0.196 -0.548,0.258 -6.597,2.162 -12.366,5.889 -18.149,9.59 -5.635,3.606 -11.787,5.203 -18.469,4.78 -6.256,-0.394 -12.516,-0.735 -18.771,-1.155 -8.486,-0.57 -16.961,-0.755 -25.449,0.058 -6.641,0.636 -13.301,1.067 -19.953,1.61 -3.641,0.296 -7.208,0.914 -10.631,2.297 -1.49,0.603 -3.123,0.844 -4.647,1.378 -6.289,2.209 -12.552,4.492 -18.351,7.84 -1.924,1.113 -3.78,2.346 -5.662,3.529 -4.873,3.059 -10.104,5.016 -15.892,5.497 -5.458,0.453 -10.925,0.569 -16.364,0.135 -7.753,-0.616 -14.492,-3.795 -19.728,-9.54 -2.97,-3.257 -5.706,-6.84 -6.781,-11.334 -0.233,-0.977 -0.64,-1.919 -1.034,-2.848 -2.11,-4.967 -2.46,-10.2 -2.237,-15.484 0.067,-1.58 0.559,-3.179 1.077,-4.692 0.587,-1.717 1.55,-3.304 2.126,-5.022 2.136,-6.4 6.864,-10.325 12.591,-13.256 1.222,-0.625 2.699,-0.96 4.078,-1.021 2.205,-0.099 4.455,-0.042 6.636,0.286 2.953,0.447 5.149,2.247 6.781,4.703 0.919,1.384 1.324,2.955 1.254,4.612 -0.059,1.413 -0.277,2.82 -0.31,4.231 -0.019,0.792 0.139,1.603 0.316,2.384 0.36,1.604 2.422,2.402 3.889,1.58 1.1,-0.616 1.985,-1.455 2.407,-2.624 1.907,-5.29 2.308,-10.639 0.411,-16.029 -0.198,-0.567 -0.443,-1.168 -0.835,-1.605 -2.597,-2.909 -5.479,-5.567 -9.548,-5.921 -3.812,-0.332 -7.668,-0.2 -11.506,-0.219 -0.798,-0.003 -1.636,0.118 -2.391,0.375 -4.788,1.628 -9.519,3.409 -13.463,6.715 -3.417,2.867 -6.591,5.966 -9.1,9.701 -1.259,1.874 -2.17,3.853 -2.693,6.054 -0.513,2.158 -1.134,4.298 -1.821,6.408 -0.637,1.956 -0.888,3.934 -0.836,5.973 0.156,6.099 1.242,12.064 2.598,17.985 0.266,1.167 0.812,2.282 1.325,3.376 0.598,1.281 1.37,2.482 1.945,3.772 2.993,6.724 8.049,11.554 14.144,15.404 3.425,2.165 6.989,4.071 11.002,4.979 0.981,0.222 1.941,0.58 2.873,0.967 4.379,1.818 8.978,2.355 13.662,2.358 3.639,0.004 7.279,-0.084 10.92,-0.096 3.068,-0.01 6.045,-0.51 8.906,-1.614 7.541,-2.912 15.138,-5.692 22.422,-9.236 2.908,-1.415 5.858,-2.76 8.861,-3.954 1.867,-0.744 3.86,-1.183 5.815,-1.692 2.736,-0.713 5.505,-1.302 8.232,-2.05 4.131,-1.135 8.367,-1.433 12.604,-1.666 5.25,-0.288 10.509,-0.647 15.76,-0.578 9.7,0.125 19.396,0.595 29.096,0.814 5.761,0.13 11.106,2.056 16.544,3.571 3.258,0.908 5.549,3.267 7.441,5.938 0.539,0.762 0.715,1.899 0.746,2.873 0.053,1.609 -0.105,3.231 -0.257,4.839 -0.131,1.41 -0.317,2.818 -0.579,4.207 -2.234,11.859 -2.041,23.731 -0.224,35.614 0.733,4.798 1.458,9.597 2.187,14.395 0.091,0.6 0.123,1.218 0.291,1.796 1.969,6.787 3.836,13.61 6.505,20.17 2.216,5.445 5.514,10.343 8.008,15.649 0.085,0.182 0.214,0.345 0.294,0.529 2.104,4.877 5.21,9.074 8.604,13.124 2.074,2.472 3.992,5.074 6.218,7.43 6.723,7.123 14.415,12.884 23.106,17.456 4.301,2.261 8.787,4.099 13.08,6.355 1.24,0.652 2.633,1.024 3.97,1.482 1.912,0.655 3.869,1.19 5.751,1.921 2.663,1.036 5.401,1.611 8.234,1.945 3.01,0.353 6.025,0.795 8.973,1.48 4.957,1.152 9.611,2.985 13.645,6.28 3.913,3.197 7.966,6.23 12.071,9.177 3.096,2.222 5.348,4.878 5.962,8.753 0.258,1.621 1.031,3.056 1.984,4.387 1.242,1.739 2.879,2.822 5.046,2.969 1.006,0.069 2.02,0.09 3.031,0.075 3.639,-0.055 7.276,-0.163 10.917,-0.2 2.221,-0.022 4.458,-0.08 6.665,0.125 1.591,0.147 3.161,0.639 4.71,1.089 2.959,0.863 4.789,2.866 5.65,5.809 0.397,1.356 0.783,2.724 1.319,4.026 0.962,2.344 4.086,3.24 6.134,1.724 1.293,-0.956 2.431,-2.123 3.621,-3.213 1.963,-1.8 4.248,-2.479 6.716,-1.427 4.65,1.987 9.462,1.966 14.323,1.429 9.244,-1.024 18.479,-2.121 27.719,-3.191 0.401,-0.047 0.803,-0.106 1.196,-0.192 1.948,-0.427 3.224,-1.605 3.823,-3.496 0.182,-0.574 0.339,-1.178 0.373,-1.775 0.283,-4.845 0.546,-9.691 0.791,-14.537 0.182,-3.612 -0.984,-6.747 -3.36,-9.47 -1.064,-1.216 -2.015,-2.531 -3.042,-3.781 -1.296,-1.577 -2.279,-3.313 -3.003,-5.232 -2.397,-6.362 -6.772,-10.909 -12.895,-13.815 -0.912,-0.433 -1.788,-0.944 -2.697,-1.381 -4.094,-1.97 -7.373,-4.781 -10.033,-8.535 -2.213,-3.123 -5.036,-5.793 -8.457,-7.705 -0.883,-0.492 -1.724,-1.057 -2.579,-1.596 -2.265,-1.427 -4.115,-3.238 -5.4,-5.621 -0.766,-1.424 -1.709,-2.75 -2.467,-4.175 -1.01,-1.899 -0.361,-4.256 1.549,-5.245 1.605,-0.828 3.311,-1.504 5.033,-2.055 3.373,-1.078 5.332,-3.517 6.651,-6.605 0.894,-2.094 0.334,-4.612 -1.472,-6.059 C 56.291,98.413 55.039,97.694 53.764,97.128 51.732,96.229 49.623,95.504 47.539,94.726 45.814,94.084 44.234,93.218 42.892,91.938 42.307,91.382 41.695,90.834 41.025,90.39 37.74,88.208 35.32,85.302 33.537,81.8 32.9,80.546 32.133,79.321 31.225,78.252 28.743,75.325 25.602,73.68 21.672,73.85 20.461,73.903 19.254,74.048 18.047,74.161 15.576,74.392 13.221,73.885 10.906,73.078 9.357,72.537 7.967,71.747 6.783,70.597 4.459,68.336 2.213,66.046 0.844,63.006 c -0.992,-2.207 -2.198,-4.33 -3.432,-6.415 -1.233,-2.083 -2.615,-4.077 -3.942,-6.103 -3.247,-4.956 -3.822,-5.186 -1.409,-11.101 2.922,-7.172 2.742,-14.613 1.472,-22.099 -0.677,-3.993 -2.627,-7.162 -5.996,-9.449 -1.17,-0.794 -2.34,-1.6 -3.428,-2.499 -1.723,-1.425 -1.263,-4.164 0.836,-4.936 0.934,-0.343 1.948,-0.64 2.93,-0.657 4.043,-0.074 8.086,-0.032 12.131,-0.032 C 0.004,-0.188 0.002,-0.095 0,0"
               style="fill:#0000ff;fill-opacity:1;fill-rule:evenodd;stroke:#ffffff;stroke-width:9.74262905;stroke-miterlimit:4;stroke-dasharray:none"
               id="path4899"
               inkscape:connector-curvature="0" />
          </g>
          <g
             id="g4901"
             transform="matrix(0.20092111,0,0,0.16910055,876.37447,449.39611)"
             style="fill:#800080;stroke:#ffffff;stroke-width:9.74262905;stroke-miterlimit:4;stroke-dasharray:none">
            <path
               d="M 0,0 C 5.915,-1.784 6.652,-5.062 10.055,-9.047 10.443,-20.166 8.316,-22.54 4.021,-28.149 20.184,-46.776 8.836,-86.231 3.015,-105.557 h 7.04 c 0.748,-4.475 1.256,-4.226 3.014,-7.038 -1.006,-3.349 -2.012,-6.702 -3.014,-10.051 -0.67,-0.335 -1.342,-0.668 -2.013,-1.005 -11.159,2.835 -7.448,-2.532 -20.105,-3.018 -1.342,2.347 -2.68,4.694 -4.021,7.037 -9.72,-0.67 -19.438,-1.34 -29.154,-2.01 -4.017,-7.828 -5.654,-11.377 -11.061,-17.087 1.006,-1.34 2.012,-2.685 3.019,-4.023 9.809,3.177 24.618,9.394 34.18,5.025 v -1.002 c -1.005,-2.685 -2.011,-5.365 -3.017,-8.045 -20.229,-2.072 -40.486,-7.848 -53.28,5.027 -4.465,-4.044 -8.486,-7.111 -12.064,-12.065 0.668,-1.002 1.34,-2.009 2.011,-3.012 14.694,-0.55 30.886,2.962 42.22,0 0.335,-0.673 0.671,-1.345 1.007,-2.015 -0.672,-1.003 -1.341,-2.01 -2.009,-3.013 -7.482,-7.506 -49.079,-5.763 -57.305,0 -5.127,3.591 -2.065,8.43 -7.035,12.06 -12.852,7.227 -32.584,-0.512 -49.261,2.013 -35.609,5.395 -75.32,-2.363 -106.563,-10.053 -13.636,-3.356 -28.647,-9.113 -46.243,-6.032 -2.345,3.015 -4.693,6.032 -7.037,9.05 11.426,14.241 45.899,25.493 69.366,26.134 v -1.003 c -1.006,-1.341 -2.01,-2.681 -3.016,-4.024 -14.073,-5.022 -28.15,-10.05 -42.223,-15.077 v -2.01 c 27.728,3.755 53.382,13.974 84.445,19.102 21.99,3.626 43.355,-2.56 57.302,7.033 4.182,14.211 -1.123,27.847 2.012,46.245 6.116,35.896 24.104,89.076 75.398,77.409 8.378,-3.685 16.755,-7.372 25.132,-11.059 8.043,2.009 16.084,4.02 24.127,6.034 7.859,-1.077 13.262,-7.252 21.112,-6.034 C -2.68,-8.044 -1.342,-4.02 0,0"
               style="fill:#800080;fill-opacity:1;fill-rule:evenodd;stroke:#ffffff;stroke-width:9.74262905;stroke-miterlimit:4;stroke-dasharray:none"
               id="path4903"
               inkscape:connector-curvature="0" />
          </g>
          <g
             id="g4905"
             transform="matrix(0.20092111,0,0,0.16910055,730.57555,443.99936)"
             style="fill:#0000ff;stroke:#ffffff;stroke-width:9.74262905;stroke-miterlimit:4;stroke-dasharray:none">
            <path
               d="m 0,0 c 40.758,0.729 60.812,-17.429 94.498,-27.145 1.675,3.018 3.351,6.033 5.027,9.05 16.279,2.238 18.96,-5.719 29.154,-9.05 12.062,0.335 24.129,0.672 36.19,1.005 16.407,-3.137 27.032,-11.175 42.223,-16.085 v -4.02 c -4.02,-5.697 -8.043,-11.392 -12.063,-17.092 -10.632,-6.466 -34.294,-14.913 -43.227,-18.091 -16.795,-5.981 -36.709,-2.561 -45.24,-16.089 -2.136,-3.666 -1.724,-6.232 -1.005,-11.057 14.281,0.792 19.776,-2.216 21.112,-12.063 -5.835,1.636 -6.03,3.064 -12.065,3.015 -1.063,-3.67 -0.818,-2.953 -3.015,-5.027 -4.819,9.085 -15.174,4.204 -25.132,8.045 -16.705,6.437 -45.071,18.997 -62.33,-1.005 10.412,-0.213 14.615,-3.927 18.095,-11.06 -1.265,-3.04 0.019,-1.205 -2.01,-3.018 -14.409,1.007 -28.819,2.015 -43.227,3.018 -72.393,-11.566 -119.494,17.228 -158.839,-38.2 -15.562,-21.923 -26.381,-68.484 -20.107,-109.577 0.671,-18.766 1.34,-37.535 2.011,-56.3 -3.738,-23.652 -6.148,-48.137 -12.063,-68.36 -3.64,-12.441 -3.117,-24.441 -11.059,-32.17 -0.671,0.332 -1.34,0.67 -2.01,1.008 3.014,14.74 6.031,29.484 9.047,44.23 1.341,15.077 2.681,30.164 4.022,45.241 v 47.248 c 0,73.996 -1.819,125.627 42.223,156.829 14.505,10.274 31.55,22.4 53.28,25.133 -0.737,60.7 27.062,88.52 69.366,105.555 C -18.097,-4.022 -9.046,-2.01 0,0"
               style="fill:#0000ff;fill-opacity:1;fill-rule:evenodd;stroke:#ffffff;stroke-width:9.74262905;stroke-miterlimit:4;stroke-dasharray:none"
               id="path4907"
               inkscape:connector-curvature="0" />
          </g>
          <g
             id="g4909"
             transform="matrix(0.20092111,0,0,0.16910055,1033.7666,257.06592)"
             style="fill:#ff0000;stroke:#ffffff;stroke-width:9.74262905;stroke-miterlimit:4;stroke-dasharray:none">
            <path
               d="M 0,0 C 0.334,2.35 0.672,4.692 1.006,7.042 2.01,6.37 3.014,5.699 4.021,5.027 5.027,3.354 6.029,1.678 7.037,0 6.82,-4.534 6.324,-5.415 5.027,-8.04 c -31.484,-4.463 -45.998,23.536 -66.353,32.172 -13.582,5.759 -23.939,-8.953 -41.217,-6.034 -14.633,2.476 -47.838,16.268 -55.292,16.085 -52.352,-1.29 -19.836,-61.069 -69.364,-71.378 -5.482,-1.141 -10.023,-3.488 -14.076,-1 -4.898,1.585 -6.623,2.857 -8.042,8.04 20.37,4.197 30.678,2.006 38.202,19.099 -0.672,3.351 -1.342,6.705 -2.01,10.056 -0.67,-0.336 -1.34,-0.673 -2.012,-1.008 -9.146,-17.25 -25.264,-14.687 -47.25,-20.105 -2.68,1.338 -5.358,2.68 -8.043,4.022 v 7.035 c 12.03,3.846 33.721,0.111 40.215,11.056 8.84,14.125 -8.693,29.781 -11.06,38.205 0.67,9.717 1.34,19.437 2.012,29.152 -3.363,15.116 -16.726,24.778 -23.124,38.203 -23.238,48.795 0.805,67.38 -64.338,85.452 -0.646,-3.653 -0.404,-3.044 -2.011,-5.028 -2.008,1.342 -4.022,2.68 -6.03,4.023 0.217,4.534 0.711,5.419 2.008,8.04 11.426,1.421 20.74,-4.316 27.146,7.037 10.917,17.581 10.189,54.342 0,71.377 -9.197,15.367 -37.442,20.814 -24.131,50.266 16.42,-1.673 32.843,-3.351 49.263,-5.024 5.359,-3.019 10.72,-6.034 16.085,-9.05 12.255,-2.732 13.593,9.528 25.132,7.035 7.337,-1.581 8.75,-6.143 11.058,-13.067 -3.416,-4.164 -5.143,-5.11 -12.065,-6.03 4.496,-11.368 2.562,-31.342 8.043,-43.23 6.258,-13.573 18.885,-25.41 25.132,-40.21 7.708,-27.142 15.417,-54.292 23.124,-81.432 9.381,-16.42 18.764,-32.844 28.149,-49.26 5.348,-12.57 4.932,-25.123 9.047,-40.214 16.763,-3.162 30.998,-12.26 50.265,-15.078 11.057,1.678 22.119,3.351 33.174,5.027 5.027,-4.692 10.055,-9.382 15.078,-14.075 C -36.08,12.367 -19.795,1.364 0,0"
               style="fill:#ff0000;fill-opacity:1;fill-rule:evenodd;stroke:#ffffff;stroke-width:9.74262905;stroke-miterlimit:4;stroke-dasharray:none"
               id="path4911"
               inkscape:connector-curvature="0" />
          </g>
          <g
             id="g4913"
             transform="matrix(0.20092111,0,0,0.16910055,989.97098,367.30054)"
             style="fill:#ff0000;stroke:#ffffff;stroke-width:9.74262905;stroke-miterlimit:4;stroke-dasharray:none">
            <path
               d="m 0,0 c 2.01,-0.335 4.021,-0.67 6.032,-1.005 5.225,-2.709 6.06,-7.228 8.042,-13.07 3.015,0.335 6.031,0.67 9.048,1.005 0.718,6.214 2.323,7.97 7.035,10.054 4.584,2.39 7.868,1.347 13.071,0 1.74,-3.783 2.871,-7.002 2.009,-11.059 16.754,4.02 33.513,8.047 50.266,12.067 47.937,8.816 88.939,-18.117 106.562,-41.221 19.639,-25.742 28.278,-66.979 62.329,-78.414 32.274,-10.836 151.661,-1.37 168.892,-15.077 -36.523,-0.67 -73.056,-1.343 -109.578,-2.013 h -45.239 c -19.856,3.863 -33.154,15.512 -49.261,19.103 -47.907,10.672 -57.74,-36.676 -96.508,-22.117 -1.341,1.006 -2.683,2.008 -4.023,3.014 8.115,7.712 22.315,4.509 34.182,9.048 -0.336,0.672 -0.671,1.342 -1.007,2.014 -14.527,1.336 -25.566,11.997 -36.189,13.064 -32.056,3.225 -38.824,-12.982 -52.276,-28.146 H 48.255 c 2.466,8.197 11.28,6.701 17.089,10.055 0.421,14.123 -1.616,16.902 -7.037,25.133 -18.722,3.058 -32.374,-9.456 -56.297,-6.035 3.77,9.49 14.026,4.24 20.106,10.055 -14.321,43.614 -62.149,27.337 -79.418,65.343 0.749,4.479 1.254,4.225 3.013,7.037 C -40.233,-27.361 -9.28,-9.755 0,0"
               style="fill:#ff0000;fill-opacity:1;fill-rule:evenodd;stroke:#ffffff;stroke-width:9.74262905;stroke-miterlimit:4;stroke-dasharray:none"
               id="path4915"
               inkscape:connector-curvature="0" />
          </g>
          <g
             id="g4917"
             transform="matrix(-0.20092111,0,0,0.16910055,858.17223,283.92481)"
             style="fill:#800080;stroke:#ffffff;stroke-width:9.74262905;stroke-miterlimit:4;stroke-dasharray:none">
            <path
               d="m 0,0 c 1.904,-2.26 4.167,-4.218 6.264,-6.316 3.297,-3.295 6.789,-6.422 9.829,-9.938 2.613,-3.022 4.71,-6.487 7.332,-10.175 6.678,2.802 9.822,9.272 15.345,13.289 h 5.196 c 5.159,-10.486 5.687,-20.454 -2.464,-30.247 -4.245,-5.1 -4.566,-10.371 -2.162,-17.627 5.703,-17.206 3.469,-31.287 -2.871,-51.023 -3.642,-11.336 -7.931,-22.754 -6.657,-35.98 5.526,-1.121 10.984,-2.228 17.077,-3.464 1.864,-2.652 8.853,-1.593 7.925,-9.246 -2.241,0.683 -4.241,1.291 -6.558,1.995 -4.314,-4.312 -9.098,-1.776 -14.127,0.693 -1.19,-0.836 -2.487,-1.748 -3.756,-2.639 -3.387,1.095 -6.755,2.184 -11.094,3.589 v 20.895 c -3.991,-2.821 -6.526,-4.613 -9.508,-6.72 H -25.98 c -0.164,-1.925 -0.332,-3.896 -0.546,-6.425 2.062,-1.676 4.342,-3.528 7.667,-6.228 3.932,0.055 16.294,1.359 13.982,-5.911 -1.29,-4.058 -6.897,-4.71 -11.409,-4.194 -5.187,0.592 -7.994,-0.679 -15.475,-0.755 -3.392,-0.034 -3.985,5.435 -6.554,5.905 -2.964,0.542 -5.087,-3.581 -7.548,-2.938 -0.683,0.177 -1.306,0.927 -1.345,1.63 -0.167,3.026 3.311,5.074 5.029,7.71 -3.053,3.12 -3.181,6.613 -0.231,9.482 -6.017,3.115 -12.972,5.494 -18.338,9.834 -5.738,4.64 -13.211,3.055 -19.112,7.629 -3.974,-2.886 -8.317,-5.34 -7.574,-11.515 3.92,-2.884 8.144,-4.359 13.235,-4.373 3.845,-0.011 7.686,-1.609 11.687,-2.538 0,-3.496 3.569,-8.621 0,-10.842 -2.405,-1.497 -4.009,2.891 -6.361,3.131 -4.474,0.456 -9.237,-5.375 -15.289,-3.973 -1.503,0.349 -3.152,2.711 -5.469,4.703 -2.965,-1.007 -6.317,-5.391 -9.736,-3.31 -7.967,4.848 -2.756,18.307 -4.171,27.705 -6.086,4.203 -16.063,5.679 -22.959,3.539 -10.199,-3.166 -20.64,-5.443 -30.978,-8.1 -3.796,-0.974 -7.483,-2.378 -11.952,-3.824 1.554,-9.328 12.619,-16.073 7.774,-27.17 -15.418,-30.619 -53.039,-32.604 -65.662,-37.499 -2.87,-1.113 -6.537,-0.171 -11.34,-0.171 5.417,6.098 11.51,7.642 17.045,10.226 12.083,5.642 25.338,8.877 36.003,17.477 1.17,0.943 3.12,0.937 4.251,1.905 19.532,16.73 -1.499,17.834 -3.208,39.021 6.938,11.092 18.1,14.068 28.576,17.735 7.075,2.478 14.797,3.072 21.944,5.39 5.559,1.803 10.678,4.965 16.527,7.782 -8.395,24.912 -0.562,24.816 -0.577,43.988 -0.007,14.155 5.343,26.346 12.483,38.107 5.938,9.786 13.82,18.237 22.785,24.603 C -54.396,25.006 -21.821,25.884 0,0"
               style="fill:#800080;fill-opacity:1;fill-rule:evenodd;stroke:#ffffff;stroke-width:9.74262905;stroke-miterlimit:4;stroke-dasharray:none"
               id="path4919"
               inkscape:connector-curvature="0" />
          </g>
          <g
             id="g4925"
             transform="matrix(0.20092111,0,0,0.16910055,731.05015,338.14765)"
             style="fill:#0000ff;stroke:#ffffff;stroke-width:9.74262905;stroke-miterlimit:4;stroke-dasharray:none">
            <path
               d="m 0,0 c 2.907,-1.609 5.481,-2.973 7.983,-4.458 0.733,-0.435 1.26,-1.216 1.773,-1.73 -0.441,-4.005 -2.462,-6.638 -5.835,-7.708 -3.201,-1.016 -6.315,-2.65 -10.112,-0.852 -2.731,1.291 -6.49,0.498 -9.118,1.897 -2.853,1.519 -6.251,0.804 -8.752,2.91 -7.991,0.207 -15.996,0.491 -23.245,-4.452 -3.315,0.496 -6.828,-0.527 -10.418,0.955 -1.594,0.659 -3.964,0.457 -6.204,-0.699 -2.031,-1.047 -5.028,-0.221 -7.565,-0.221 -0.944,-0.941 -1.856,-1.851 -2.955,-2.947 3.322,-6.459 6.54,-13.087 3.17,-20.918 -1.703,-1.075 -3.738,-2.359 -5.904,-3.726 h -4.392 c -2.592,2.274 -5.787,4.268 -7.836,7.094 -2.325,3.204 -5.342,6.016 -6.744,9.855 -0.238,0.653 -0.168,1.417 -0.3,2.709 -2.91,2.461 -6.172,5.216 -9.822,8.302 -2.983,0.224 -6.53,-0.123 -9.628,0.893 -3.595,1.179 -7.117,0.518 -10.626,0.993 -3.311,0.451 -6.289,-1.027 -9.483,-1.18 -2.991,-0.147 -6.143,0.849 -8.925,-1.075 -5.248,0.746 -9.863,-2.828 -15.092,-2.208 -5.424,-2.272 -11.116,-1.016 -16.65,-0.95 -3.499,0.042 -7.108,1.219 -10.354,2.828 -2.445,1.209 -5.577,1.216 -7.223,3.87 -1.352,2.178 -2.617,4.412 -3.888,6.564 1.013,2.449 1.923,4.65 3.049,7.371 0.283,0.164 1.264,0.571 2.044,1.221 2.753,2.29 5.416,4.686 8.163,6.983 0.5,0.417 1.259,0.507 1.857,0.825 4.867,2.585 10.182,4.454 14.086,8.587 0.549,0.582 0.712,1.527 1.09,2.384 -2.017,2.894 -4.408,4.571 -7.978,4.541 -1.5,-0.012 -2.988,0.809 -4.514,1.001 -1.449,0.184 -2.949,0.153 -4.408,0.018 -3.166,-0.294 -6.311,-0.864 -9.482,-1.041 -3.301,-0.185 -6.847,0.701 -9.876,-0.224 -3.972,-1.215 -7.837,-0.767 -11.741,-0.856 -2.033,-0.046 -4.079,0.575 -6.494,0.954 0.942,1.79 1.893,2.335 3.472,2.362 1.141,0.019 2.249,0.871 3.411,1 4.7,0.519 9.346,1.322 14.008,2.085 8.017,1.313 16.192,1.684 24.353,1.262 2.467,-1.668 5.699,-0.907 8.215,-2.905 2.09,-1.659 4.84,-2.486 7.276,-3.669 v -7.053 c -1.268,-4.719 -6.334,-6.121 -9.018,-9.241 -6.343,-1.32 -9.181,-7.52 -15.024,-9.407 -0.473,-1.663 -0.988,-3.474 -1.395,-4.901 1.09,-2.862 3.408,-4.305 5.342,-4.588 3.734,-0.548 7.488,-2.67 11.434,-0.747 0.754,0.365 1.671,0.444 2.527,0.545 2.115,0.251 4.433,-0.021 6.304,0.775 1.998,0.852 4.505,-0.872 6.03,1.437 2.863,-0.186 5.653,0.891 8.372,0.938 4.857,0.083 9.266,1.84 13.879,2.717 3.084,0.586 6.341,1.122 9.804,2.509 -3.289,3.937 -5,8.193 -6.662,12.527 -1.58,4.116 -4.317,7.747 -5.395,12.113 -0.707,2.86 -1.785,5.605 -1.836,8.648 -0.04,2.244 -0.634,4.485 -1.051,6.717 -0.385,2.059 1.001,4.397 -0.989,6.224 -0.193,0.177 -0.009,0.711 -0.114,1.042 -0.722,2.261 1.123,4.033 1.138,6.169 0.015,2.158 0.172,4.318 0.377,6.466 0.079,0.835 0.693,1.65 0.665,2.46 -0.192,5.513 2.899,9.822 5.17,14.432 0.453,0.921 1.014,1.791 1.555,2.667 1.841,2.994 3.732,5.884 6.105,8.574 2.361,2.681 4.66,5.436 7.158,8.011 2.727,2.809 5.822,5.122 9.181,7.134 1.069,0.639 1.804,1.81 2.798,2.604 2.025,1.616 4.123,3.14 6.567,4.985 -1.447,2.54 -1.169,5.949 -0.883,9.253 0.278,3.211 2.646,5.563 4.474,8.048 2.147,2.922 5.354,4.526 8.797,5.982 -0.849,6.017 2.204,10.698 4.899,15.17 1.602,2.659 1.84,5.923 4.393,8.216 2.259,2.031 3.768,4.884 5.034,7.784 0.548,1.254 1.875,2.173 2.865,3.23 1.336,1.422 2.688,2.828 4.316,4.541 -5.677,1.743 -9.77,4.898 -13.453,8.66 -0.516,0.527 -1.002,1.089 -1.567,1.556 -4.879,4.02 -7.884,9.405 -11.053,14.733 -3.147,5.288 -4.901,10.817 -4.333,16.963 0.174,1.889 0.726,3.742 1.118,5.683 1.939,1.262 3.941,2.567 5.714,3.721 4.933,1.277 9.664,0.062 13.99,-1.093 4.119,-1.101 8.592,-2.395 12.043,-5.518 1.649,-1.491 3.559,-1.841 6.336,-1.907 0.171,0.297 0.505,0.605 0.488,0.89 -0.164,2.569 -2.193,5.069 -0.698,7.656 1.421,2.454 0.242,4.989 0.881,7.679 1.067,1.464 2.307,3.164 3.418,4.69 h 6.9 c 5.536,-3.732 12.021,-6.048 16.043,-11.92 1.984,-0.553 3.965,-1.105 5.26,-1.466 2.256,1.428 3.783,2.643 5.508,3.43 2.779,1.266 5.616,2.842 8.559,3.194 3.158,0.376 6.119,1.759 9.471,1.363 3.136,-0.368 6.183,1.224 9.469,1.164 1.888,-0.035 3.564,-1.222 5.783,-0.359 1.661,0.647 4.02,-0.686 6.092,-0.862 2.192,-0.185 4.644,0.568 6.57,-0.169 3.923,-1.503 8.373,-0.351 12.086,-2.848 1.027,-0.692 2.832,-0.142 4.247,-0.369 1.343,-0.217 2.631,-0.952 3.965,-1.017 2.278,-0.108 4.057,-0.997 5.567,-2.625 1.001,-3.28 -1.034,-5.165 -3.056,-7.312 -2.916,-3.098 -5.248,-6.76 -8.259,-9.747 -1.756,-1.743 -4.35,-2.643 -7.061,-4.206 -0.29,-0.436 -0.858,-1.529 -1.649,-2.43 -2.327,-2.645 -5.069,-4.794 -6.433,-8.387 -0.957,-2.518 -3.295,-4.607 -5.3,-6.603 -1.864,-1.856 -1.864,-4.413 -3.06,-6.488 -1.278,-2.218 -2.462,-4.495 -3.609,-6.784 -1.067,-2.127 -2.563,-4.223 -2.925,-6.483 -0.632,-3.952 -1.968,-7.742 -2.524,-11.656 -0.952,-6.704 -2.633,-13.224 -4.705,-19.607 -1.799,-5.548 -2.21,-11.126 -1.943,-16.82 0.062,-1.292 0.863,-2.55 1.706,-4.876 2.087,-2.047 4.961,-4.881 7.849,-7.701 2.883,-2.814 5.681,-3.209 9.949,-3.213 4.431,-0.005 9.029,1.308 13.368,-0.925 0.727,-0.373 1.819,-0.126 2.731,-0.039 4.061,0.39 7.657,-0.904 10.745,-3.359 4.173,-3.322 8.394,-6.679 10.318,-11.974 0.581,-1.599 1.191,-3.185 1.896,-5.064 -0.422,-1.054 -0.927,-2.317 -1.496,-3.742 H 53.352 C 49.169,79.681 45,81.732 41.281,84.649 39.508,86.041 36.893,86.443 34.599,87.072 28.61,88.709 22.444,88.567 16.354,88.194 13.735,88.034 11.21,86.502 8.62,85.651 7.468,85.273 6.267,85.042 4.421,84.575 1.23,82.414 -1.909,79.151 -4.445,75.688 c -0.871,-2.65 -1.389,-5.225 -2.533,-7.486 -1.733,-3.427 -2.345,-6.931 -2.201,-10.71 0.044,-1.131 -0.609,-2.289 -0.915,-3.337 0.698,-2.496 1.932,-4.958 1.956,-7.432 0.042,-4.256 0.712,-8.539 -0.8,-12.852 -0.613,-1.749 -1.256,-3.529 -1.937,-5.28 -1.047,-2.698 -2.044,-5.416 -3.338,-8.857 -4.508,-4.327 -9.153,-9.629 -13.417,-16.503 5.578,0.62 9.922,-1.56 14.65,-1.075 C -8.358,2.631 -4.309,-0.758 0,0"
               style="fill:#0000ff;fill-opacity:1;fill-rule:evenodd;stroke:#ffffff;stroke-width:9.74262905;stroke-miterlimit:4;stroke-dasharray:none"
               id="path4927"
               inkscape:connector-curvature="0" />
          </g>
          <g
             id="g4921"
             transform="matrix(0.20092111,0,0,0.16910055,972.98783,441.12055)"
             style="fill:#ff0000;stroke:#ffffff;stroke-width:9.74262905;stroke-miterlimit:4;stroke-dasharray:none">
            <path
               d="m 0,0 v 11.41 c 7.586,3.972 4.953,17.297 18.234,17.737 3.301,-0.917 8.53,-3.389 13.854,-3.619 8.616,-0.37 16.615,-2.612 24.587,-5.355 3.327,-1.144 7.522,-1.856 9.523,-4.263 2.863,-3.44 6.766,-2.536 9.813,-4.322 3.102,-1.82 6.081,-3.849 10.167,-6.458 h 8.507 c 3.711,2.483 7.356,4.922 11.001,7.36 10.282,-6.456 16.085,-18.79 6.64,-26.162 -1.525,-1.187 -3.445,-1.867 -6.164,-3.278 4.75,-4.977 9.302,-9.745 13.104,-13.73 6.22,0 51.243,2.527 70.626,-11.172 7.574,-5.353 16.131,-9.464 22.548,-16.617 8.786,-9.794 18.196,-18.769 25.539,-30.073 5.896,-9.077 8.811,-18.513 11.352,-28.476 1.398,-5.485 2.073,-11.144 3.031,-16.669 0.898,-5.173 1.79,-10.284 2.221,-15.554 0.249,-3.057 1.83,-6.003 2.894,-9.25 13.116,-12.393 51.966,-17.762 68.458,-19.318 11.361,-1.072 21.846,-4.19 32.495,-7.868 7.328,-2.53 13.451,-6.416 19.945,-10.392 9.469,-5.799 13.568,-13.681 16.221,-23.867 3.476,-13.335 0.213,-23.026 -11.852,-29.811 -0.945,-0.533 -1.697,-1.418 -2.904,-2.453 -3.18,10.582 7.033,18.617 4.053,28.641 -1.715,2.878 -3.116,6.333 -5.452,8.95 -9.634,10.793 -21.92,18.145 -35.816,20.715 -12.69,2.348 -25.602,4.319 -38.452,6.066 -9.472,1.287 -19.465,-0.526 -28.05,2.577 -7.688,2.78 -15.15,2.493 -21.982,1.307 -5.182,-0.902 -10.35,-1.575 -15.026,-1.933 -9.638,-2.31 -14.094,-8.269 -23.873,-12.705 -3.069,-1.393 -1.434,-8.326 -5.149,-8.424 -2.691,-0.07 -1.913,4.74 -4.012,5.845 -3.225,1.697 -7.952,1.34 -10.017,-0.243 -7.055,-5.41 -13.043,1.78 -19.598,0.813 -1.139,-0.168 -2.717,2.646 -3.736,3.709 2.246,7.469 8.079,5.628 13.37,7.51 -1.498,0.592 -2.996,1.184 -4.494,1.774 -7.555,1.016 -15.338,3.766 -23.42,6.472 -11.061,3.701 -22.555,7.34 -34.856,4.991 -1.027,3.285 -1.953,6.244 -3.084,9.855 0.734,0.244 2.045,0.679 3.952,1.316 0.293,1.923 -1.041,5.424 1.001,6.575 5.556,3.132 11.444,-6.287 17.263,-6.747 6.308,-0.498 11.038,-4.228 17.468,-6.086 -4.328,5.874 -6.075,6.939 -17.93,12.589 -6.415,3.057 -12.658,6.471 -18.706,10.191 -5.382,1.787 -9.867,-0.803 -14.44,-3.594 -10.236,-6.251 -17.155,-16.426 -27.42,-22.749 -3.131,-1.93 -6.901,-5.715 -7.067,-9.984 -0.052,-1.335 5.335,-2.862 3.395,-5.943 -2.631,-4.177 -8.345,0.862 -11.753,0.785 -4.093,-0.094 -8.166,-0.83 -12.26,-1.015 -4.15,-0.188 -8.313,-0.041 -12.084,-0.041 -2.499,4.558 1.564,7.437 2.962,7.334 11.954,-0.882 17.66,6.947 22.683,15.568 3.541,6.076 6.375,12.568 9.878,19.58 -10.471,-5.265 -10.456,-5.276 -16.139,-13.091 -0.736,-1.011 -1.616,-1.984 -2.619,-2.718 -2.584,-1.885 -5.634,-3.277 -7.82,-5.524 -2.177,-2.24 -3.531,-5.28 -5.349,-8.135 h -31.11 c -1.528,1.302 -2.789,2.376 -4.112,3.501 2.343,1.207 4.45,2.29 7.345,3.781 h 14.182 c 10.378,8.422 13.836,20.041 17.105,32.39 2.953,11.155 5.637,22.076 4.691,33.595 -0.425,5.199 -2.719,10.45 -2.191,15.469 0.643,6.115 -2.483,11.086 -3.073,16.761 -0.51,4.933 -2.541,9.985 -5.002,14.368 -2.753,4.899 -6.255,9.612 -10.301,13.501 -8.031,7.721 -13.587,16.939 -18.959,26.537 C 10.465,-12.043 5.422,-6.955 0,0"
               style="fill:#ff0000;fill-opacity:1;fill-rule:evenodd;stroke:#ffffff;stroke-width:9.74262905;stroke-miterlimit:4;stroke-dasharray:none"
               id="path4923"
               inkscape:connector-curvature="0" />
          </g>
          <text
             xml:space="preserve"
             style="font-style:normal;font-weight:normal;font-size:28.40912247px;line-height:125%;font-family:Sans;letter-spacing:0px;word-spacing:0px;fill:#ffffff;fill-opacity:1;stroke:none;stroke-width:0.71022809px;stroke-linecap:butt;stroke-linejoin:miter;stroke-opacity:1"
             x="686.82953"
             y="-454.83163"
             id="text4535"
             transform="scale(1.0565193,-0.94650425)"><tspan
               sodipodi:role="line"
               id="tspan4533"
               x="686.82953"
               y="-454.83163"
               style="font-size:9.46970749px;line-height:50%;fill:#ffffff;stroke-width:0.71022809px">D1</tspan></text>
          <text
             xml:space="preserve"
             style="font-style:normal;font-weight:normal;font-size:28.40912247px;line-height:125%;font-family:Sans;letter-spacing:0px;word-spacing:0px;fill:#ffffff;fill-opacity:1;stroke:none;stroke-width:0.71022809px;stroke-linecap:butt;stroke-linejoin:miter;stroke-opacity:1"
             x="687.07141"
             y="-294.36908"
             id="text4535-3"
             transform="scale(1.0565193,-0.94650425)"><tspan
               sodipodi:role="line"
               id="tspan4533-6"
               x="687.07141"
               y="-294.36908"
               style="font-size:9.46970749px;line-height:50%;fill:#ffffff;stroke-width:0.71022809px">D2</tspan></text>
          <text
             xml:space="preserve"
             style="font-style:normal;font-weight:normal;font-size:28.40912247px;line-height:125%;font-family:Sans;letter-spacing:0px;word-spacing:0px;fill:#ffffff;fill-opacity:1;stroke:none;stroke-width:0.71022809px;stroke-linecap:butt;stroke-linejoin:miter;stroke-opacity:1"
             x="667.73761"
             y="-364.97437"
             id="text4535-3-7"
             transform="scale(1.0565193,-0.94650425)"><tspan
               sodipodi:role="line"
               id="tspan4533-6-5"
               x="667.73761"
               y="-364.97437"
               style="font-size:9.46970749px;line-height:50%;fill:#ffffff;stroke-width:0.71022809px">D1.2</tspan></text>
          <text
             xml:space="preserve"
             style="font-style:normal;font-weight:normal;font-size:28.40912247px;line-height:125%;font-family:Sans;letter-spacing:0px;word-spacing:0px;fill:#ffffff;fill-opacity:1;stroke:none;stroke-width:0.71022809px;stroke-linecap:butt;stroke-linejoin:miter;stroke-opacity:1"
             x="942.72986"
             y="-374.97528"
             id="text4535-3-7-3"
             transform="scale(1.0565193,-0.94650425)"><tspan
               sodipodi:role="line"
               id="tspan4533-6-5-5"
               x="942.72986"
               y="-374.97528"
               style="font-size:9.46970749px;line-height:50%;fill:#ffffff;stroke-width:0.71022809px">M1.2</tspan></text>
          <text
             xml:space="preserve"
             style="font-style:normal;font-weight:normal;font-size:28.40912247px;line-height:125%;font-family:Sans;letter-spacing:0px;word-spacing:0px;fill:#ffffff;fill-opacity:1;stroke:none;stroke-width:0.71022809px;stroke-linecap:butt;stroke-linejoin:miter;stroke-opacity:1"
             x="927.4632"
             y="-294.03436"
             id="text4535-3-7-3-6"
             transform="scale(1.0565193,-0.94650425)"><tspan
               sodipodi:role="line"
               id="tspan4533-6-5-5-2"
               x="927.4632"
               y="-294.03436"
               style="font-size:9.46970749px;line-height:50%;fill:#ffffff;stroke-width:0.71022809px">M2</tspan></text>
          <text
             xml:space="preserve"
             style="font-style:normal;font-weight:normal;font-size:28.40912247px;line-height:125%;font-family:Sans;letter-spacing:0px;word-spacing:0px;fill:#ffffff;fill-opacity:1;stroke:none;stroke-width:0.71022809px;stroke-linecap:butt;stroke-linejoin:miter;stroke-opacity:1"
             x="941.36969"
             y="-445.71503"
             id="text4535-3-7-3-6-9"
             transform="scale(1.0565193,-0.94650425)"><tspan
               sodipodi:role="line"
               id="tspan4533-6-5-5-2-1"
               x="941.36969"
               y="-445.71503"
               style="font-size:9.46970749px;line-height:50%;fill:#ffffff;stroke-width:0.71022809px">M1</tspan></text>
          <text
             xml:space="preserve"
             style="font-style:normal;font-weight:normal;font-size:28.40912247px;line-height:125%;font-family:Sans;letter-spacing:0px;word-spacing:0px;fill:#ffffff;fill-opacity:1;stroke:none;stroke-width:0.71022809px;stroke-linecap:butt;stroke-linejoin:miter;stroke-opacity:1"
             x="803.26898"
             y="-458.28943"
             id="text4535-3-7-3-6-9-2"
             transform="scale(1.0565193,-0.94650425)"><tspan
               sodipodi:role="line"
               id="tspan4533-6-5-5-2-1-7"
               x="803.26898"
               y="-458.28943"
               style="font-size:9.46970749px;line-height:50%;fill:#ffffff;stroke-width:0.71022809px">D1M1</tspan></text>
          <text
             xml:space="preserve"
             style="font-style:normal;font-weight:normal;font-size:28.40912247px;line-height:125%;font-family:Sans;letter-spacing:0px;word-spacing:0px;fill:#ffffff;fill-opacity:1;stroke:none;stroke-width:0.71022809px;stroke-linecap:butt;stroke-linejoin:miter;stroke-opacity:1"
             x="805.53534"
             y="-283.23438"
             id="text4535-3-7-3-6-9-2-0"
             transform="scale(1.0565193,-0.94650425)"><tspan
               sodipodi:role="line"
               id="tspan4533-6-5-5-2-1-7-9"
               x="805.53534"
               y="-283.23438"
               style="font-size:9.46970749px;line-height:50%;fill:#ffffff;stroke-width:0.71022809px">D2M2</tspan></text>
        </g>
      </g>
    </g>
  </g>
</svg>
